<svg version="1.0" xmlns="http://www.w3.org/2000/svg" width="933.333" height="933.333" viewBox="0 0 700 700"><path d="M207.8 43.4c-.1.2-3.9.6-8.3 1-14.3 1.2-30.3 5.8-43.7 12.6-26.5 13.5-49.8 40.2-58.7 67.3-5.3 16.1-6.6 24.4-6.5 41.2.1 16.1 3.8 32.4 10.7 47.6l2.6 5.6-32.5.1c-22 0-34.2.4-37.7 1.3-15.1 3.5-27.2 15-31.8 30.1C.2 256 .1 260.4.1 316c0 63.6 0 63.5 5 69.8 1.3 1.7 4.4 4.1 6.9 5.4l4.5 2.3 331 .2c236.4.1 332.4-.1 335.9-.9 6.2-1.4 13.9-8.5 15.5-14.4 1.4-5.2 1.5-117 .1-124.5-.6-3-2.2-7.9-3.7-10.9-3.2-6.5-12.1-15.9-18.3-19-9.3-4.7-12.1-5.1-46-5.2-22.4-.1-31.9-.5-31.6-1.2 9.5-21.7 12.9-35.7 12.9-53.6.2-37.8-18-73.7-48.9-96.6-27.3-20.3-62.4-28-97-21.3-2.8.5-6.2 1.2-7.7 1.5-4.3.7-16.7 5.4-23.9 9-8.5 4.1-21.8 12.9-28.8 18.9-14.2 12.3-30.8 30.2-45 49-4.6 6-8.6 11.3-9 11.8-.4.4-4.7-4.6-9.7-11-5-6.5-9.9-12.8-10.9-13.9-1.1-1.2-3.9-4.6-6.4-7.5-32.6-38.4-66.2-57.6-104-59.5-5.8-.3-11-.7-11.7-.9-.6-.2-1.3-.2-1.5-.1zm19.6 67.6c16.6 3.7 34.3 18.6 58.7 49.5 13.2 16.6 30.5 40.6 38.8 53.7l3 4.7-63.7-.3c-62.4-.2-63.8-.3-70.3-2.4-19.2-6.4-33.3-22.6-37.5-43.2-.6-3.2-.6-14.6.1-18.5 3.8-21.1 21-39 42-43.8 6.7-1.6 21.4-1.4 28.9.3zm280.3.9c32.9 10.1 48.3 45.8 33.1 76.9-4.2 8.6-15 19.6-23.1 23.5-13.1 6.3-9.4 6-78.9 6.3-35.1.1-63.8 0-63.8-.3 0-1.7 39.8-57.2 44.5-61.9.6-.6 3.3-3.9 6-7.3 7.8-9.5 24.4-25.4 31.4-29.9 7.6-5 15.5-8.1 23.1-9.1 9.2-1.2 20.4-.5 27.7 1.8zM43.9 440c0 1.4-.1 41.9-.1 90 0 62.7.3 88.9 1.1 92.5 3.9 16.5 19.6 30.9 36 33.1 2.9.4 54.7.7 115.2.8l109.9.1.1-2.5c.5-16.8 0-215.2-.5-215.8-.4-.4-59.5-.7-131.2-.7H44l-.1 2.5zm350 1c-.4 20.1 0 214.2.4 214.7.4.3 50.9.6 112.4.6 97.4-.1 112.5-.3 116.9-1.6 13.3-4 22-11.2 27.9-23.2 1.9-3.9 3.7-9.5 4.1-12.5.9-7.5.9-179.8 0-180.8-.4-.4-59.5-.7-131.2-.7H394l-.1 3.5z"/></svg>