<svg version="1.0" xmlns="http://www.w3.org/2000/svg" width="933.333" height="933.333" viewBox="0 0 700 700"><path d="M326 19.6c-82.8 7.3-153.5 39.8-210 96.4-46.2 46.3-77.6 104.4-90.4 167.5-5 24.5-6.1 37-6.1 67 .1 30.5 1.1 40.8 6.5 67.5 13.6 66.6 50 130.3 100.5 176.2C188.3 650.4 267.1 681 350 681c72.3 0 141.4-23.1 199-66.6 60.7-45.9 103.5-110.1 122-183.4 12-47.3 13.1-98.4 3.4-147-13.5-67.5-50-132.2-100.4-177.8-6.8-6.1-10.7-10.4-11-12.1-.4-2-1.3-2.7-4-3.2-2.1-.3-7.1-3.2-12.7-7.5C503.4 51 449.2 29.3 392 21.5c-11-1.5-55.8-2.8-66-1.9zm57.5 38.9c37 4.3 72.5 15.2 104.3 32.2 5.7 3.1 10.5 6 10.8 6.7.2.6.3 90.6.2 200.1l-.3 199-107.4-202.8L283.6 91h-35.4c-20 0-35.1-.4-34.8-.9.9-1.5 25.4-12.1 38.4-16.7 19.5-7 42.4-12.3 63.2-14.8 15.9-1.9 52.3-2 68.5-.1zM227.2 576.8l31.8.2.2-202.7.3-202.8 27.3 51.5c15 28.3 63.4 119.6 107.5 202.7L474.5 577h61.7l-2.9 2.3c-1.5 1.3-6.8 5.3-11.8 8.8-38.4 27.6-82.1 45.3-129.7 52.5-16.4 2.5-57.1 3-74.8 1C190.2 626.9 87.5 533 62.6 408.9c-7.6-37.6-7.6-81.8 0-118.4 15.6-75.1 59.8-141 122.9-183.6l9-6.2.5 237.9.5 237.9 31.7.3zm358.6-401.6c25.6 34.5 43.2 74.1 51.6 115.9 7.4 36.5 7.6 78.8.6 115-9.9 51.5-35.7 103.4-68.8 138.9l-6.1 6.5v-403l7 7.5c3.8 4.1 10.9 12.8 15.7 19.2z"/></svg>