<?xml version="1.0" standalone="no"?>
<!DOCTYPE svg PUBLIC "-//W3C//DTD SVG 20010904//EN"
 "http://www.w3.org/TR/2001/REC-SVG-20010904/DTD/svg10.dtd">
<svg version="1.0" xmlns="http://www.w3.org/2000/svg"
 width="640.000000pt" height="640.000000pt" viewBox="0 0 640.000000 640.000000"
 preserveAspectRatio="xMidYMid meet">
<metadata>
Created by potrace 1.11, written by Peter Selinger 2001-2013
</metadata>
<g transform="translate(0.000000,640.000000) scale(0.100000,-0.100000)"
fill="#000000" stroke="none">
<path d="M3065 5108 c-47 -8 -100 -23 -295 -84 -47 -14 -89 -27 -95 -28 -5 -1
-14 -4 -20 -7 -5 -4 -23 -9 -40 -13 -16 -4 -66 -18 -110 -33 -44 -14 -84 -26
-90 -27 -5 -1 -50 -15 -100 -30 -49 -16 -94 -29 -100 -31 -5 -1 -17 -5 -25 -8
-8 -3 -37 -13 -65 -21 -27 -8 -88 -26 -135 -41 -47 -14 -92 -28 -100 -30 -8
-2 -60 -18 -115 -35 -55 -18 -104 -33 -110 -35 -5 -1 -37 -10 -70 -20 -33 -11
-63 -20 -67 -21 -5 -1 -10 -3 -13 -4 -3 -1 -8 -3 -12 -4 -5 -1 -46 -14 -93
-28 -47 -15 -285 -88 -530 -163 -772 -236 -754 -230 -805 -278 -54 -51 -78
-112 -72 -182 8 -94 74 -180 157 -206 19 -6 41 -12 48 -14 7 -3 13 -4 15 -4 1
0 29 -10 62 -21 33 -12 69 -23 81 -26 11 -2 61 -17 110 -33 49 -15 110 -34
136 -42 45 -12 58 -23 41 -31 -5 -1 -20 -21 -34 -43 -66 -102 -111 -216 -125
-320 -3 -22 -7 -51 -10 -65 -2 -14 -16 -34 -31 -45 -15 -11 -34 -28 -43 -38
-8 -10 -23 -28 -32 -39 -10 -11 -27 -45 -38 -75 -41 -109 -8 -243 79 -326 36
-34 38 -39 31 -74 -4 -21 -10 -45 -13 -53 -3 -8 -8 -31 -11 -50 -3 -19 -17
-84 -31 -145 -56 -247 -66 -291 -69 -310 -3 -11 -14 -63 -26 -115 -12 -52 -24
-106 -26 -120 -3 -14 -9 -41 -14 -60 -5 -19 -11 -46 -14 -60 -3 -14 -7 -34 -9
-45 -3 -11 -12 -56 -22 -100 -9 -44 -18 -81 -20 -83 -9 -9 28 -89 52 -115 30
-30 72 -44 147 -46 28 -1 53 -4 57 -7 4 -2 10 0 13 5 3 4 23 5 43 2 21 -4 52
-4 70 0 17 3 36 3 43 -1 6 -4 31 -4 55 0 25 4 45 4 45 0 0 -4 20 -4 45 0 25 4
48 3 51 -1 2 -5 10 -6 17 -4 7 3 42 6 80 8 135 6 191 97 152 249 -8 29 -16 65
-20 80 -11 58 -16 82 -31 147 -9 36 -18 77 -20 91 -3 14 -9 41 -14 60 -5 19
-11 46 -14 60 -2 14 -11 55 -20 91 -8 37 -17 78 -20 90 -2 13 -11 54 -20 90
-8 37 -18 79 -21 93 -8 40 -13 65 -31 141 -35 157 -37 138 16 193 65 67 91
138 85 232 -2 39 -8 77 -13 83 -6 7 -10 14 -9 17 2 14 -55 89 -86 114 -20 16
-38 36 -40 45 -6 30 24 136 54 191 38 67 126 160 153 160 19 0 202 -53 241
-70 11 -4 43 -14 70 -21 28 -6 56 -17 64 -23 8 -6 15 -9 15 -7 1 2 21 -3 46
-10 25 -7 50 -14 55 -15 13 -3 257 -78 360 -111 44 -13 100 -31 125 -38 25 -7
70 -21 100 -30 80 -26 298 -93 470 -145 41 -12 93 -28 115 -35 104 -34 276
-86 330 -101 71 -19 260 -26 331 -12 60 12 79 16 79 18 0 1 7 3 15 5 27 6 225
66 240 72 8 4 20 7 25 8 12 2 202 60 260 80 22 8 117 37 210 65 94 28 181 55
195 60 14 5 59 18 100 31 41 12 122 36 180 55 58 18 166 51 240 73 74 23 155
48 180 56 25 7 92 28 150 45 58 18 122 38 143 46 20 8 38 13 40 13 2 -2 171
48 197 58 8 3 20 7 26 8 5 2 64 20 130 41 65 20 124 38 130 40 6 1 58 16 115
34 268 83 286 90 333 131 25 23 44 45 40 50 -3 5 -1 9 4 9 23 0 42 142 23 175
-3 6 -6 13 -6 16 0 3 -13 26 -29 51 -20 33 -44 53 -80 71 -45 22 -127 52 -133
49 -2 -1 -18 5 -38 14 -19 8 -35 12 -35 10 0 -3 -16 2 -35 10 -19 8 -38 15
-42 15 -5 1 -12 3 -18 5 -5 1 -64 19 -130 39 -66 20 -131 40 -145 45 -14 4
-63 20 -110 34 -47 14 -211 65 -365 112 -348 107 -378 116 -390 119 -5 1 -17
5 -25 8 -8 3 -49 16 -90 27 -41 12 -82 24 -90 27 -19 8 -30 11 -57 17 -12 2
-32 10 -45 17 -13 7 -24 12 -25 11 -2 -1 -8 0 -15 2 -7 2 -38 11 -68 19 -30 8
-100 29 -155 47 -55 17 -107 32 -115 34 -19 5 -150 46 -170 53 -8 3 -19 7 -25
9 -12 2 -358 109 -430 132 -27 8 -54 16 -60 18 -5 1 -30 7 -55 15 -25 7 -52
14 -60 16 -32 9 -238 9 -285 1z"/>
<path d="M1419 3033 c0 -10 -2 -27 -5 -38 -2 -11 -6 -45 -9 -75 -4 -30 -8 -66
-10 -80 -1 -14 -6 -50 -9 -80 -4 -30 -9 -66 -11 -80 -2 -14 -7 -47 -10 -75 -3
-27 -7 -66 -10 -85 -2 -19 -7 -57 -10 -85 -4 -27 -8 -61 -10 -75 -2 -14 -7
-50 -10 -80 -3 -30 -8 -66 -10 -80 -2 -14 -7 -47 -10 -75 -3 -27 -9 -70 -12
-95 -4 -25 -7 -77 -7 -115 0 -65 3 -75 37 -126 77 -117 220 -210 452 -297 129
-48 370 -113 465 -125 19 -3 42 -7 50 -10 8 -3 33 -8 55 -11 59 -7 115 -16
155 -22 19 -4 58 -8 85 -10 28 -2 70 -6 95 -9 204 -27 694 -32 930 -10 127 11
197 18 220 20 68 8 223 31 270 40 14 3 41 8 60 11 60 11 168 36 235 54 22 6
50 13 63 16 39 8 234 80 305 113 157 71 289 179 331 270 22 47 24 65 21 130
-3 42 -7 87 -9 101 -6 26 -12 73 -21 148 -3 23 -7 61 -10 85 -3 23 -8 60 -11
82 -2 22 -7 58 -10 80 -2 22 -7 58 -10 80 -3 22 -7 58 -9 80 -4 39 -9 73 -21
153 -3 20 -7 55 -9 77 -2 22 -6 59 -9 83 -3 23 -8 61 -11 84 -3 23 -7 44 -10
46 -4 4 -93 -19 -135 -35 -19 -8 -17 -7 -70 -22 -25 -6 -52 -15 -60 -18 -8 -3
-20 -7 -26 -8 -6 -2 -58 -18 -115 -36 -57 -18 -108 -34 -114 -35 -13 -4 -120
-36 -225 -69 -47 -15 -89 -27 -95 -29 -5 -1 -16 -5 -22 -9 -7 -5 -13 -6 -13
-3 0 3 -16 -2 -35 -10 -19 -8 -36 -14 -37 -13 -2 1 -34 -9 -73 -21 -38 -12
-77 -23 -85 -25 -8 -2 -34 -10 -58 -19 -23 -8 -46 -16 -50 -16 -4 0 -52 -15
-107 -32 -55 -17 -101 -30 -102 -30 -2 1 -20 -5 -42 -13 -22 -7 -54 -16 -73
-19 -18 -3 -55 -9 -81 -14 -51 -10 -292 -8 -342 2 -69 15 -156 38 -250 68 -55
18 -104 33 -110 34 -5 1 -68 21 -140 43 -71 23 -137 43 -145 44 -8 2 -76 22
-150 46 -74 23 -187 58 -250 77 -165 50 -213 65 -230 72 -21 8 -21 8 -55 17
-37 9 -185 54 -205 62 -38 15 -60 14 -61 -4z"/>
</g>
</svg>
